<svg width="94" height="21" viewBox="0 0 94 21" fill="none" xmlns="http://www.w3.org/2000/svg">
<path d="M3 20L0.648 0.559999H4.296L5.448 11.888L6.912 0.584H9.768L11.304 11.816L12.48 0.559999H16.08L13.752 20H10.008L8.352 8.264L6.792 20H3ZM20.6269 20.24C19.9229 20.24 19.3309 20.072 18.8509 19.736C18.3709 19.4 18.0109 18.976 17.7709 18.464C17.5309 17.936 17.4109 17.4 17.4109 16.856C17.4109 15.992 17.5789 15.264 17.9149 14.672C18.2669 14.08 18.7229 13.584 19.2829 13.184C19.8429 12.784 20.4589 12.448 21.1309 12.176C21.8029 11.888 22.4669 11.632 23.1229 11.408V10.016C23.1229 9.776 23.0989 9.568 23.0509 9.392C23.0029 9.2 22.9229 9.056 22.8109 8.96C22.6989 8.848 22.5309 8.792 22.3069 8.792C22.0829 8.792 21.9069 8.84 21.7789 8.936C21.6669 9.032 21.5869 9.168 21.5389 9.344C21.4909 9.504 21.4589 9.688 21.4429 9.896L21.3469 10.904L17.6989 10.76C17.7789 9.096 18.2189 7.872 19.0189 7.088C19.8349 6.288 21.0509 5.888 22.6669 5.888C24.0749 5.888 25.1229 6.28 25.8109 7.064C26.5149 7.832 26.8669 8.832 26.8669 10.064V16.544C26.8669 17.12 26.8749 17.624 26.8909 18.056C26.9229 18.488 26.9549 18.864 26.9869 19.184C27.0349 19.504 27.0749 19.776 27.1069 20H23.6029C23.5549 19.632 23.4989 19.232 23.4349 18.8C23.3709 18.368 23.3229 18.112 23.2909 18.032C23.1309 18.608 22.8269 19.12 22.3789 19.568C21.9469 20.016 21.3629 20.24 20.6269 20.24ZM22.0189 17.6C22.1789 17.6 22.3229 17.568 22.4509 17.504C22.5949 17.44 22.7229 17.352 22.8349 17.24C22.9469 17.128 23.0429 17.016 23.1229 16.904V13.112C22.8029 13.304 22.5069 13.504 22.2349 13.712C21.9629 13.904 21.7309 14.12 21.5389 14.36C21.3469 14.6 21.1949 14.864 21.0829 15.152C20.9869 15.424 20.9389 15.736 20.9389 16.088C20.9389 16.552 21.0349 16.92 21.2269 17.192C21.4189 17.464 21.6829 17.6 22.0189 17.6ZM33.4341 20.144C32.3941 20.144 31.5861 19.992 31.0101 19.688C30.4501 19.384 30.0661 18.944 29.8581 18.368C29.6501 17.776 29.5461 17.064 29.5461 16.232V8.696H28.2021V6.128H29.5461V1.904H33.5061V6.128H35.4741V8.696H33.5061V15.848C33.5061 16.248 33.6181 16.536 33.8421 16.712C34.0821 16.888 34.3781 16.976 34.7301 16.976C34.9381 16.976 35.1301 16.968 35.3061 16.952C35.4821 16.92 35.6421 16.896 35.7861 16.88V19.952C35.5781 19.984 35.2501 20.024 34.8021 20.072C34.3541 20.12 33.8981 20.144 33.4341 20.144ZM42.1344 20.24C41.1264 20.24 40.2624 20.056 39.5424 19.688C38.8384 19.32 38.2944 18.792 37.9104 18.104C37.5264 17.416 37.3344 16.584 37.3344 15.608V10.52C37.3344 9.528 37.5264 8.688 37.9104 8C38.2944 7.312 38.8384 6.792 39.5424 6.44C40.2624 6.072 41.1264 5.888 42.1344 5.888C43.1264 5.888 43.9664 6.04 44.6544 6.344C45.3584 6.648 45.8944 7.112 46.2624 7.736C46.6304 8.344 46.8144 9.12 46.8144 10.064V11.528H43.0464V9.944C43.0464 9.576 43.0064 9.296 42.9264 9.104C42.8624 8.896 42.7584 8.752 42.6144 8.672C42.4864 8.592 42.3264 8.552 42.1344 8.552C41.9424 8.552 41.7824 8.608 41.6544 8.72C41.5264 8.816 41.4304 8.984 41.3664 9.224C41.3024 9.448 41.2704 9.768 41.2704 10.184V15.944C41.2704 16.568 41.3424 16.992 41.4864 17.216C41.6464 17.44 41.8704 17.552 42.1584 17.552C42.3664 17.552 42.5344 17.512 42.6624 17.432C42.7904 17.336 42.8864 17.192 42.9504 17C43.0144 16.792 43.0464 16.52 43.0464 16.184V14.336H46.8144V16.016C46.8144 16.944 46.6224 17.728 46.2384 18.368C45.8704 18.992 45.3344 19.464 44.6304 19.784C43.9424 20.088 43.1104 20.24 42.1344 20.24ZM48.873 20V0.559999H52.761V7.352C53.273 6.84 53.809 6.472 54.369 6.248C54.929 6.008 55.529 5.888 56.169 5.888C56.729 5.888 57.193 6.032 57.561 6.32C57.945 6.592 58.233 6.976 58.425 7.472C58.617 7.952 58.713 8.504 58.713 9.128V20H54.825V9.68C54.825 9.344 54.769 9.088 54.657 8.912C54.545 8.736 54.337 8.648 54.033 8.648C53.873 8.648 53.681 8.696 53.457 8.792C53.233 8.872 53.001 8.992 52.761 9.152V20H48.873Z" fill="white"/>
<path d="M61.2759 20V0.559999H69.6759V3.464H65.5719V8.36H69.1479V11.36H65.5719V20H61.2759ZM71.6342 20V0.559999H75.5222V20H71.6342ZM78.0761 20V6.128H81.9881V20H78.0761ZM78.0521 3.776V1.064H81.9881V3.776H78.0521ZM83.4437 20L86.3957 12.392L83.5877 6.128H87.5237L89.0117 9.464L90.3317 6.128H93.3317L90.5957 12.968L93.7397 20H89.7557L88.0757 16.184L86.6837 20H83.4437Z" fill="#DA3714"/>
</svg>
